<svg xmlns="http://www.w3.org/2000/svg" xmlns:xlink="http://www.w3.org/1999/xlink" version="1.1" ><symbol id="calendar" viewBox="0 0 30 32"> <path d="M2.286 29.714h5.143v-5.143h-5.143v5.143zM8.571 29.714h5.714v-5.143h-5.714v5.143zM2.286 23.429h5.143v-5.714h-5.143v5.714zM8.571 23.429h5.714v-5.714h-5.714v5.714zM2.286 16.571h5.143v-5.143h-5.143v5.143zM15.429 29.714h5.714v-5.143h-5.714v5.143zM8.571 16.571h5.714v-5.143h-5.714v5.143zM22.286 29.714h5.143v-5.143h-5.143v5.143zM15.429 23.429h5.714v-5.714h-5.714v5.714zM9.143 8v-5.143c0-0.304-0.268-0.571-0.571-0.571h-1.143c-0.304 0-0.571 0.268-0.571 0.571v5.143c0 0.304 0.268 0.571 0.571 0.571h1.143c0.304 0 0.571-0.268 0.571-0.571zM22.286 23.429h5.143v-5.714h-5.143v5.714zM15.429 16.571h5.714v-5.143h-5.714v5.143zM22.286 16.571h5.143v-5.143h-5.143v5.143zM22.857 8v-5.143c0-0.304-0.268-0.571-0.571-0.571h-1.143c-0.304 0-0.571 0.268-0.571 0.571v5.143c0 0.304 0.268 0.571 0.571 0.571h1.143c0.304 0 0.571-0.268 0.571-0.571zM29.714 6.857v22.857c0 1.25-1.036 2.286-2.286 2.286h-25.143c-1.25 0-2.286-1.036-2.286-2.286v-22.857c0-1.25 1.036-2.286 2.286-2.286h2.286v-1.714c0-1.571 1.286-2.857 2.857-2.857h1.143c1.571 0 2.857 1.286 2.857 2.857v1.714h6.857v-1.714c0-1.571 1.286-2.857 2.857-2.857h1.143c1.571 0 2.857 1.286 2.857 2.857v1.714h2.286c1.25 0 2.286 1.036 2.286 2.286z" /> </symbol><symbol id="close" viewBox="0 0 25 32"> <path d="M23.179 23.607c0 0.446-0.179 0.893-0.5 1.214l-2.429 2.429c-0.321 0.321-0.768 0.5-1.214 0.5s-0.893-0.179-1.214-0.5l-5.25-5.25-5.25 5.25c-0.321 0.321-0.768 0.5-1.214 0.5s-0.893-0.179-1.214-0.5l-2.429-2.429c-0.321-0.321-0.5-0.768-0.5-1.214s0.179-0.893 0.5-1.214l5.25-5.25-5.25-5.25c-0.321-0.321-0.5-0.768-0.5-1.214s0.179-0.893 0.5-1.214l2.429-2.429c0.321-0.321 0.768-0.5 1.214-0.5s0.893 0.179 1.214 0.5l5.25 5.25 5.25-5.25c0.321-0.321 0.768-0.5 1.214-0.5s0.893 0.179 1.214 0.5l2.429 2.429c0.321 0.321 0.5 0.768 0.5 1.214s-0.179 0.893-0.5 1.214l-5.25 5.25 5.25 5.25c0.321 0.321 0.5 0.768 0.5 1.214z"></path> </symbol><symbol id="down" viewBox="0 0 21 32"> <path d="M19.196 13.143c0 0.143-0.071 0.304-0.179 0.411l-8.321 8.321c-0.107 0.107-0.268 0.179-0.411 0.179s-0.304-0.071-0.411-0.179l-8.321-8.321c-0.107-0.107-0.179-0.268-0.179-0.411s0.071-0.304 0.179-0.411l0.893-0.893c0.107-0.107 0.25-0.179 0.411-0.179 0.143 0 0.304 0.071 0.411 0.179l7.018 7.018 7.018-7.018c0.107-0.107 0.268-0.179 0.411-0.179s0.304 0.071 0.411 0.179l0.893 0.893c0.107 0.107 0.179 0.268 0.179 0.411z"></path> </symbol><symbol id="download" viewBox="0 0 32 32"> <path d="M16 18l8-8h-6v-8h-4v8h-6zM23.273 14.727l-2.242 2.242 8.128 3.031-13.158 4.907-13.158-4.907 8.127-3.031-2.242-2.242-8.727 3.273v8l16 6 16-6v-8z"></path> </symbol><symbol id="email" viewBox="0 0 32 32"> <path d="M29.714 26.857v-13.714c-0.375 0.429-0.786 0.821-1.232 1.179-2.554 1.964-5.125 3.964-7.607 6.036-1.339 1.125-3 2.5-4.857 2.5h-0.036c-1.857 0-3.518-1.375-4.857-2.5-2.482-2.071-5.054-4.071-7.607-6.036-0.446-0.357-0.857-0.75-1.232-1.179v13.714c0 0.304 0.268 0.571 0.571 0.571h26.286c0.304 0 0.571-0.268 0.571-0.571zM29.714 8.089c0-0.446 0.107-1.232-0.571-1.232h-26.286c-0.304 0-0.571 0.268-0.571 0.571 0 2.036 1.018 3.804 2.625 5.071 2.393 1.875 4.786 3.768 7.161 5.661 0.946 0.768 2.661 2.411 3.911 2.411h0.036c1.25 0 2.964-1.643 3.911-2.411 2.375-1.893 4.768-3.786 7.161-5.661 1.161-0.911 2.625-2.893 2.625-4.411zM32 7.429v19.429c0 1.571-1.286 2.857-2.857 2.857h-26.286c-1.571 0-2.857-1.286-2.857-2.857v-19.429c0-1.571 1.286-2.857 2.857-2.857h26.286c1.571 0 2.857 1.286 2.857 2.857z"></path> </symbol><symbol id="facebook" viewBox="0 0 19 32"> <path d="M17.125 0.214v4.714h-2.804c-2.196 0-2.607 1.054-2.607 2.571v3.375h5.232l-0.696 5.286h-4.536v13.554h-5.464v-13.554h-4.554v-5.286h4.554v-3.893c0-4.518 2.768-6.982 6.804-6.982 1.929 0 3.589 0.143 4.071 0.214z"></path> </symbol><symbol id="file" viewBox="0 0 27 32"> <path d="M26.214 6.786c0.661 0.661 1.214 1.982 1.214 2.929v20.571c0 0.946-0.768 1.714-1.714 1.714h-24c-0.946 0-1.714-0.768-1.714-1.714v-28.571c0-0.946 0.768-1.714 1.714-1.714h16c0.946 0 2.268 0.554 2.929 1.214zM18.286 2.429v6.714h6.714c-0.107-0.304-0.268-0.607-0.393-0.732l-5.589-5.589c-0.125-0.125-0.429-0.286-0.732-0.393zM25.143 29.714v-18.286h-7.429c-0.946 0-1.714-0.768-1.714-1.714v-7.429h-13.714v27.429h22.857z"></path> </symbol><symbol id="google_plus" viewBox="0 0 41 32"> <path d="M25.661 16.304c0 7.482-5.018 12.786-12.571 12.786-7.232 0-13.089-5.857-13.089-13.089s5.857-13.089 13.089-13.089c3.536 0 6.482 1.286 8.768 3.429l-3.554 3.411c-0.964-0.929-2.661-2.018-5.214-2.018-4.464 0-8.107 3.696-8.107 8.268s3.643 8.268 8.107 8.268c5.179 0 7.125-3.732 7.429-5.643h-7.429v-4.5h12.357c0.125 0.661 0.214 1.321 0.214 2.179zM41.143 14.125v3.75h-3.732v3.732h-3.75v-3.732h-3.732v-3.75h3.732v-3.732h3.75v3.732h3.732z"></path> </symbol><symbol id="home" viewBox="0 0 32 32"> <path d="M32 18.451l-16-12.42-16 12.42v-5.064l16-12.42 16 12.42zM28 18v12h-8v-8h-8v8h-8v-12l12-9z"></path> </symbol><symbol id="image" viewBox="0 0 34 32"> <path d="M11.429 10.286c0 1.893-1.536 3.429-3.429 3.429s-3.429-1.536-3.429-3.429 1.536-3.429 3.429-3.429 3.429 1.536 3.429 3.429zM29.714 17.143v8h-25.143v-3.429l5.714-5.714 2.857 2.857 9.143-9.143zM31.429 4.571h-28.571c-0.304 0-0.571 0.268-0.571 0.571v21.714c0 0.304 0.268 0.571 0.571 0.571h28.571c0.304 0 0.571-0.268 0.571-0.571v-21.714c0-0.304-0.268-0.571-0.571-0.571zM34.286 5.143v21.714c0 1.571-1.286 2.857-2.857 2.857h-28.571c-1.571 0-2.857-1.286-2.857-2.857v-21.714c0-1.571 1.286-2.857 2.857-2.857h28.571c1.571 0 2.857 1.286 2.857 2.857z"></path> </symbol><symbol id="instagram" viewBox="0 0 27 32"> <path d="M18.286 16c0-2.518-2.054-4.571-4.571-4.571s-4.571 2.054-4.571 4.571 2.054 4.571 4.571 4.571 4.571-2.054 4.571-4.571zM20.75 16c0 3.893-3.143 7.036-7.036 7.036s-7.036-3.143-7.036-7.036 3.143-7.036 7.036-7.036 7.036 3.143 7.036 7.036zM22.679 8.679c0 0.911-0.732 1.643-1.643 1.643s-1.643-0.732-1.643-1.643 0.732-1.643 1.643-1.643 1.643 0.732 1.643 1.643zM13.714 4.75c-2 0-6.286-0.161-8.089 0.554-0.625 0.25-1.089 0.554-1.571 1.036s-0.786 0.946-1.036 1.571c-0.714 1.804-0.554 6.089-0.554 8.089s-0.161 6.286 0.554 8.089c0.25 0.625 0.554 1.089 1.036 1.571s0.946 0.786 1.571 1.036c1.804 0.714 6.089 0.554 8.089 0.554s6.286 0.161 8.089-0.554c0.625-0.25 1.089-0.554 1.571-1.036s0.786-0.946 1.036-1.571c0.714-1.804 0.554-6.089 0.554-8.089s0.161-6.286-0.554-8.089c-0.25-0.625-0.554-1.089-1.036-1.571s-0.946-0.786-1.571-1.036c-1.804-0.714-6.089-0.554-8.089-0.554zM27.429 16c0 1.893 0.018 3.768-0.089 5.661-0.107 2.196-0.607 4.143-2.214 5.75s-3.554 2.107-5.75 2.214c-1.893 0.107-3.768 0.089-5.661 0.089s-3.768 0.018-5.661-0.089c-2.196-0.107-4.143-0.607-5.75-2.214s-2.107-3.554-2.214-5.75c-0.107-1.893-0.089-3.768-0.089-5.661s-0.018-3.768 0.089-5.661c0.107-2.196 0.607-4.143 2.214-5.75s3.554-2.107 5.75-2.214c1.893-0.107 3.768-0.089 5.661-0.089s3.768-0.018 5.661 0.089c2.196 0.107 4.143 0.607 5.75 2.214s2.107 3.554 2.214 5.75c0.107 1.893 0.089 3.768 0.089 5.661z"></path> </symbol><symbol id="left" viewBox="0 0 12 32"> <path d="M11.196 9.714c0 0.143-0.071 0.304-0.179 0.411l-7.018 7.018 7.018 7.018c0.107 0.107 0.179 0.268 0.179 0.411s-0.071 0.304-0.179 0.411l-0.893 0.893c-0.107 0.107-0.268 0.179-0.411 0.179s-0.304-0.071-0.411-0.179l-8.321-8.321c-0.107-0.107-0.179-0.268-0.179-0.411s0.071-0.304 0.179-0.411l8.321-8.321c0.107-0.107 0.268-0.179 0.411-0.179s0.304 0.071 0.411 0.179l0.893 0.893c0.107 0.107 0.179 0.25 0.179 0.411z"></path> </symbol><symbol id="link" viewBox="0 0 30 32"> <path d="M26 21.714c0-0.464-0.179-0.893-0.5-1.214l-3.714-3.714c-0.321-0.321-0.768-0.5-1.214-0.5-0.518 0-0.929 0.196-1.286 0.571 0.589 0.589 1.286 1.089 1.286 2 0 0.946-0.768 1.714-1.714 1.714-0.911 0-1.411-0.696-2-1.286-0.375 0.357-0.589 0.768-0.589 1.304 0 0.446 0.179 0.893 0.5 1.214l3.679 3.696c0.321 0.321 0.768 0.482 1.214 0.482s0.893-0.161 1.214-0.464l2.625-2.607c0.321-0.321 0.5-0.75 0.5-1.196zM13.446 9.125c0-0.446-0.179-0.893-0.5-1.214l-3.679-3.696c-0.321-0.321-0.768-0.5-1.214-0.5s-0.893 0.179-1.214 0.482l-2.625 2.607c-0.321 0.321-0.5 0.75-0.5 1.196 0 0.464 0.179 0.893 0.5 1.214l3.714 3.714c0.321 0.321 0.768 0.482 1.214 0.482 0.518 0 0.929-0.179 1.286-0.554-0.589-0.589-1.286-1.089-1.286-2 0-0.946 0.768-1.714 1.714-1.714 0.911 0 1.411 0.696 2 1.286 0.375-0.357 0.589-0.768 0.589-1.304zM29.429 21.714c0 1.357-0.554 2.679-1.518 3.625l-2.625 2.607c-0.964 0.964-2.268 1.482-3.625 1.482-1.375 0-2.679-0.536-3.643-1.518l-3.679-3.696c-0.964-0.964-1.482-2.268-1.482-3.625 0-1.411 0.571-2.75 1.571-3.732l-1.571-1.571c-0.982 1-2.304 1.571-3.714 1.571-1.357 0-2.679-0.536-3.643-1.5l-3.714-3.714c-0.982-0.982-1.5-2.268-1.5-3.643 0-1.357 0.554-2.679 1.518-3.625l2.625-2.607c0.964-0.964 2.268-1.482 3.625-1.482 1.375 0 2.679 0.536 3.643 1.518l3.679 3.696c0.964 0.964 1.482 2.268 1.482 3.625 0 1.411-0.571 2.75-1.571 3.732l1.571 1.571c0.982-1 2.304-1.571 3.714-1.571 1.357 0 2.679 0.536 3.643 1.5l3.714 3.714c0.982 0.982 1.5 2.268 1.5 3.643z"></path> </symbol><symbol id="linkedin" viewBox="0 0 27 32"> <path d="M6.232 11.161v17.696h-5.893v-17.696h5.893zM6.607 5.696c0.018 1.696-1.268 3.054-3.321 3.054v0h-0.036c-1.982 0-3.25-1.357-3.25-3.054 0-1.732 1.321-3.054 3.321-3.054 2.018 0 3.268 1.321 3.286 3.054zM27.429 18.714v10.143h-5.875v-9.464c0-2.375-0.857-4-2.982-4-1.625 0-2.589 1.089-3.018 2.143-0.143 0.393-0.196 0.911-0.196 1.446v9.875h-5.875c0.071-16.036 0-17.696 0-17.696h5.875v2.571h-0.036c0.768-1.214 2.161-2.982 5.339-2.982 3.875 0 6.768 2.536 6.768 7.964z"></path> </symbol><symbol id="menu" viewBox="0 0 27 32"> <path d="M27.429 24v2.286c0 0.625-0.518 1.143-1.143 1.143h-25.143c-0.625 0-1.143-0.518-1.143-1.143v-2.286c0-0.625 0.518-1.143 1.143-1.143h25.143c0.625 0 1.143 0.518 1.143 1.143zM27.429 14.857v2.286c0 0.625-0.518 1.143-1.143 1.143h-25.143c-0.625 0-1.143-0.518-1.143-1.143v-2.286c0-0.625 0.518-1.143 1.143-1.143h25.143c0.625 0 1.143 0.518 1.143 1.143zM27.429 5.714v2.286c0 0.625-0.518 1.143-1.143 1.143h-25.143c-0.625 0-1.143-0.518-1.143-1.143v-2.286c0-0.625 0.518-1.143 1.143-1.143h25.143c0.625 0 1.143 0.518 1.143 1.143z"></path> </symbol><symbol id="menu_thin" viewBox="0 0 7 32"> <path d="M6.857 22.286v3.429c0 0.946-0.768 1.714-1.714 1.714h-3.429c-0.946 0-1.714-0.768-1.714-1.714v-3.429c0-0.946 0.768-1.714 1.714-1.714h3.429c0.946 0 1.714 0.768 1.714 1.714zM6.857 13.143v3.429c0 0.946-0.768 1.714-1.714 1.714h-3.429c-0.946 0-1.714-0.768-1.714-1.714v-3.429c0-0.946 0.768-1.714 1.714-1.714h3.429c0.946 0 1.714 0.768 1.714 1.714zM6.857 4v3.429c0 0.946-0.768 1.714-1.714 1.714h-3.429c-0.946 0-1.714-0.768-1.714-1.714v-3.429c0-0.946 0.768-1.714 1.714-1.714h3.429c0.946 0 1.714 0.768 1.714 1.714z"></path> </symbol><symbol id="minus" viewBox="0 0 25 32"> <path d="M25.143 13.143v3.429c0 0.946-0.768 1.714-1.714 1.714h-21.714c-0.946 0-1.714-0.768-1.714-1.714v-3.429c0-0.946 0.768-1.714 1.714-1.714h21.714c0.946 0 1.714 0.768 1.714 1.714z"></path> </symbol><symbol id="pause" viewBox="0 0 27 32"> <path d="M27.429 3.429v25.143c0 0.625-0.518 1.143-1.143 1.143h-9.143c-0.625 0-1.143-0.518-1.143-1.143v-25.143c0-0.625 0.518-1.143 1.143-1.143h9.143c0.625 0 1.143 0.518 1.143 1.143zM11.429 3.429v25.143c0 0.625-0.518 1.143-1.143 1.143h-9.143c-0.625 0-1.143-0.518-1.143-1.143v-25.143c0-0.625 0.518-1.143 1.143-1.143h9.143c0.625 0 1.143 0.518 1.143 1.143z"></path> </symbol><symbol id="phone" viewBox="0 0 25 32"> <path d="M25.143 22.143c0 0.643-0.286 1.893-0.554 2.482-0.375 0.875-1.375 1.446-2.179 1.893-1.054 0.571-2.125 0.911-3.321 0.911-1.661 0-3.161-0.679-4.679-1.232-1.089-0.393-2.143-0.875-3.125-1.482-3.036-1.875-6.696-5.536-8.571-8.571-0.607-0.982-1.089-2.036-1.482-3.125-0.554-1.518-1.232-3.018-1.232-4.679 0-1.196 0.339-2.268 0.911-3.321 0.446-0.804 1.018-1.804 1.893-2.179 0.589-0.268 1.839-0.554 2.482-0.554 0.125 0 0.25 0 0.375 0.054 0.375 0.125 0.768 1 0.946 1.357 0.571 1.018 1.125 2.054 1.714 3.054 0.286 0.464 0.821 1.036 0.821 1.589 0 1.089-3.232 2.679-3.232 3.643 0 0.482 0.446 1.107 0.696 1.536 1.804 3.25 4.054 5.5 7.304 7.304 0.429 0.25 1.054 0.696 1.536 0.696 0.964 0 2.554-3.232 3.643-3.232 0.554 0 1.125 0.536 1.589 0.821 1 0.589 2.036 1.143 3.054 1.714 0.357 0.179 1.232 0.571 1.357 0.946 0.054 0.125 0.054 0.25 0.054 0.375z"></path> </symbol><symbol id="pinterest" viewBox="0 0 23 32"> <path d="M0 10.661c0-6.589 6.036-10.661 12.143-10.661 5.607 0 10.714 3.857 10.714 9.768 0 5.554-2.839 11.714-9.161 11.714-1.5 0-3.393-0.75-4.125-2.143-1.357 5.375-1.25 6.179-4.25 10.286l-0.25 0.089-0.161-0.179c-0.107-1.125-0.268-2.232-0.268-3.357 0-3.643 1.679-8.911 2.5-12.446-0.446-0.911-0.571-2.018-0.571-3.018 0-1.804 1.25-4.089 3.286-4.089 1.5 0 2.304 1.143 2.304 2.554 0 2.321-1.571 4.5-1.571 6.75 0 1.536 1.268 2.607 2.75 2.607 4.107 0 5.375-5.929 5.375-9.089 0-4.232-3-6.536-7.054-6.536-4.714 0-8.357 3.393-8.357 8.179 0 2.304 1.411 3.482 1.411 4.036 0 0.464-0.339 2.107-0.929 2.107-0.089 0-0.214-0.036-0.304-0.054-2.554-0.768-3.482-4.179-3.482-6.518z"></path> </symbol><symbol id="play" viewBox="0 0 25 32"> <path d="M24.714 16.554l-23.714 13.179c-0.554 0.304-1 0.036-1-0.589v-26.286c0-0.625 0.446-0.893 1-0.589l23.714 13.179c0.554 0.304 0.554 0.804 0 1.107z"></path> </symbol><symbol id="plus" viewBox="0 0 25 32"> <path d="M25.143 13.143v3.429c0 0.946-0.768 1.714-1.714 1.714h-7.429v7.429c0 0.946-0.768 1.714-1.714 1.714h-3.429c-0.946 0-1.714-0.768-1.714-1.714v-7.429h-7.429c-0.946 0-1.714-0.768-1.714-1.714v-3.429c0-0.946 0.768-1.714 1.714-1.714h7.429v-7.429c0-0.946 0.768-1.714 1.714-1.714h3.429c0.946 0 1.714 0.768 1.714 1.714v7.429h7.429c0.946 0 1.714 0.768 1.714 1.714z"></path> </symbol><symbol id="print" viewBox="0 0 30 32"> <path d="M6.857 27.429h16v-4.571h-16v4.571zM6.857 16h16v-6.857h-2.857c-0.946 0-1.714-0.768-1.714-1.714v-2.857h-11.429v11.429zM27.429 17.143c0-0.625-0.518-1.143-1.143-1.143s-1.143 0.518-1.143 1.143 0.518 1.143 1.143 1.143 1.143-0.518 1.143-1.143zM29.714 17.143v7.429c0 0.304-0.268 0.571-0.571 0.571h-4v2.857c0 0.946-0.768 1.714-1.714 1.714h-17.143c-0.946 0-1.714-0.768-1.714-1.714v-2.857h-4c-0.304 0-0.571-0.268-0.571-0.571v-7.429c0-1.875 1.554-3.429 3.429-3.429h1.143v-9.714c0-0.946 0.768-1.714 1.714-1.714h12c0.946 0 2.25 0.536 2.929 1.214l2.714 2.714c0.679 0.679 1.214 1.982 1.214 2.929v4.571h1.143c1.875 0 3.429 1.554 3.429 3.429z"></path> </symbol><symbol id="right" viewBox="0 0 11 32"> <path d="M10.625 17.143c0 0.143-0.071 0.304-0.179 0.411l-8.321 8.321c-0.107 0.107-0.268 0.179-0.411 0.179s-0.304-0.071-0.411-0.179l-0.893-0.893c-0.107-0.107-0.179-0.25-0.179-0.411 0-0.143 0.071-0.304 0.179-0.411l7.018-7.018-7.018-7.018c-0.107-0.107-0.179-0.268-0.179-0.411s0.071-0.304 0.179-0.411l0.893-0.893c0.107-0.107 0.268-0.179 0.411-0.179s0.304 0.071 0.411 0.179l8.321 8.321c0.107 0.107 0.179 0.268 0.179 0.411z"></path> </symbol><symbol id="save" viewBox="0 0 27 32"> <path d="M6.857 27.429h13.714v-6.857h-13.714v6.857zM22.857 27.429h2.286v-16c0-0.339-0.304-1.071-0.536-1.304l-5.018-5.018c-0.25-0.25-0.946-0.536-1.304-0.536v7.429c0 0.946-0.768 1.714-1.714 1.714h-10.286c-0.946 0-1.714-0.768-1.714-1.714v-7.429h-2.286v22.857h2.286v-7.429c0-0.946 0.768-1.714 1.714-1.714h14.857c0.946 0 1.714 0.768 1.714 1.714v7.429zM16 10.857v-5.714c0-0.304-0.268-0.571-0.571-0.571h-3.429c-0.304 0-0.571 0.268-0.571 0.571v5.714c0 0.304 0.268 0.571 0.571 0.571h3.429c0.304 0 0.571-0.268 0.571-0.571zM27.429 11.429v16.571c0 0.946-0.768 1.714-1.714 1.714h-24c-0.946 0-1.714-0.768-1.714-1.714v-24c0-0.946 0.768-1.714 1.714-1.714h16.571c0.946 0 2.25 0.536 2.929 1.214l5 5c0.679 0.679 1.214 1.982 1.214 2.929z"></path> </symbol><symbol id="search" viewBox="0 0 30 32"> <path d="M20.571 14.857c0-4.411-3.589-8-8-8s-8 3.589-8 8 3.589 8 8 8 8-3.589 8-8zM29.714 29.714c0 1.25-1.036 2.286-2.286 2.286-0.607 0-1.196-0.25-1.607-0.679l-6.125-6.107c-2.089 1.446-4.589 2.214-7.125 2.214-6.946 0-12.571-5.625-12.571-12.571s5.625-12.571 12.571-12.571 12.571 5.625 12.571 12.571c0 2.536-0.768 5.036-2.214 7.125l6.125 6.125c0.411 0.411 0.661 1 0.661 1.607z"></path> </symbol><symbol id="settings" viewBox="0 0 27 32"> <path d="M18.286 16c0-2.518-2.054-4.571-4.571-4.571s-4.571 2.054-4.571 4.571 2.054 4.571 4.571 4.571 4.571-2.054 4.571-4.571zM27.429 14.054v3.964c0 0.268-0.214 0.589-0.5 0.643l-3.304 0.5c-0.196 0.571-0.411 1.107-0.696 1.625 0.607 0.875 1.25 1.661 1.911 2.464 0.107 0.125 0.179 0.286 0.179 0.446s-0.054 0.286-0.161 0.411c-0.429 0.571-2.839 3.196-3.446 3.196-0.161 0-0.321-0.071-0.464-0.161l-2.464-1.929c-0.518 0.268-1.071 0.5-1.625 0.679-0.125 1.089-0.232 2.25-0.518 3.321-0.071 0.286-0.321 0.5-0.643 0.5h-3.964c-0.321 0-0.607-0.232-0.643-0.536l-0.5-3.286c-0.554-0.179-1.089-0.393-1.607-0.661l-2.518 1.911c-0.125 0.107-0.286 0.161-0.446 0.161s-0.321-0.071-0.446-0.196c-0.946-0.857-2.196-1.964-2.946-3-0.089-0.125-0.125-0.268-0.125-0.411 0-0.161 0.054-0.286 0.143-0.411 0.607-0.821 1.268-1.607 1.875-2.446-0.304-0.571-0.554-1.161-0.732-1.768l-3.268-0.482c-0.304-0.054-0.518-0.339-0.518-0.643v-3.964c0-0.268 0.214-0.589 0.482-0.643l3.321-0.5c0.179-0.571 0.411-1.107 0.696-1.643-0.607-0.857-1.25-1.661-1.911-2.464-0.107-0.125-0.179-0.268-0.179-0.429s0.071-0.286 0.161-0.411c0.429-0.589 2.839-3.196 3.446-3.196 0.161 0 0.321 0.071 0.464 0.179l2.464 1.911c0.518-0.268 1.071-0.5 1.625-0.679 0.125-1.089 0.232-2.25 0.518-3.321 0.071-0.286 0.321-0.5 0.643-0.5h3.964c0.321 0 0.607 0.232 0.643 0.536l0.5 3.286c0.554 0.179 1.089 0.393 1.607 0.661l2.536-1.911c0.107-0.107 0.268-0.161 0.429-0.161s0.321 0.071 0.446 0.179c0.946 0.875 2.196 1.982 2.946 3.036 0.089 0.107 0.125 0.25 0.125 0.393 0 0.161-0.054 0.286-0.143 0.411-0.607 0.821-1.268 1.607-1.875 2.446 0.304 0.571 0.554 1.161 0.732 1.75l3.268 0.5c0.304 0.054 0.518 0.339 0.518 0.643z"></path> </symbol><symbol id="star" viewBox="0 0 30 32"> <path d="M29.714 11.554c0 0.321-0.232 0.625-0.464 0.857l-6.482 6.321 1.536 8.929c0.018 0.125 0.018 0.232 0.018 0.357 0 0.464-0.214 0.893-0.732 0.893-0.25 0-0.5-0.089-0.714-0.214l-8.018-4.214-8.018 4.214c-0.232 0.125-0.464 0.214-0.714 0.214-0.518 0-0.75-0.429-0.75-0.893 0-0.125 0.018-0.232 0.036-0.357l1.536-8.929-6.5-6.321c-0.214-0.232-0.446-0.536-0.446-0.857 0-0.536 0.554-0.75 1-0.821l8.964-1.304 4.018-8.125c0.161-0.339 0.464-0.732 0.875-0.732s0.714 0.393 0.875 0.732l4.018 8.125 8.964 1.304c0.429 0.071 1 0.286 1 0.821z"></path> </symbol><symbol id="star_empty" viewBox="0 0 30 32"> <path d="M20.304 17.929l5.464-5.304-7.536-1.107-3.375-6.821-3.375 6.821-7.536 1.107 5.464 5.304-1.304 7.518 6.75-3.554 6.732 3.554zM29.714 11.554c0 0.321-0.232 0.625-0.464 0.857l-6.482 6.321 1.536 8.929c0.018 0.125 0.018 0.232 0.018 0.357 0 0.482-0.214 0.893-0.732 0.893-0.25 0-0.5-0.089-0.714-0.214l-8.018-4.214-8.018 4.214c-0.232 0.125-0.464 0.214-0.714 0.214-0.518 0-0.75-0.429-0.75-0.893 0-0.125 0.018-0.232 0.036-0.357l1.536-8.929-6.5-6.321c-0.214-0.232-0.446-0.536-0.446-0.857 0-0.536 0.554-0.75 1-0.821l8.964-1.304 4.018-8.125c0.161-0.339 0.464-0.732 0.875-0.732s0.714 0.393 0.875 0.732l4.018 8.125 8.964 1.304c0.429 0.071 1 0.286 1 0.821z"></path> </symbol><symbol id="tick" viewBox="0 0 32 32"> <path d="M29.839 10.107c0 0.446-0.179 0.893-0.5 1.214l-15.357 15.357c-0.321 0.321-0.768 0.5-1.214 0.5s-0.893-0.179-1.214-0.5l-8.893-8.893c-0.321-0.321-0.5-0.768-0.5-1.214s0.179-0.893 0.5-1.214l2.429-2.429c0.321-0.321 0.768-0.5 1.214-0.5s0.893 0.179 1.214 0.5l5.25 5.268 11.714-11.732c0.321-0.321 0.768-0.5 1.214-0.5s0.893 0.179 1.214 0.5l2.429 2.429c0.321 0.321 0.5 0.768 0.5 1.214z"></path> </symbol><symbol id="twitter" viewBox="0 0 30 32"> <path d="M28.929 7.286c-0.786 1.143-1.768 2.161-2.893 2.982 0.018 0.25 0.018 0.5 0.018 0.75 0 7.625-5.804 16.411-16.411 16.411-3.268 0-6.304-0.946-8.857-2.589 0.464 0.054 0.911 0.071 1.393 0.071 2.696 0 5.179-0.911 7.161-2.464-2.536-0.054-4.661-1.714-5.393-4 0.357 0.054 0.714 0.089 1.089 0.089 0.518 0 1.036-0.071 1.518-0.196-2.643-0.536-4.625-2.857-4.625-5.661v-0.071c0.768 0.429 1.661 0.696 2.607 0.732-1.554-1.036-2.571-2.804-2.571-4.804 0-1.071 0.286-2.054 0.786-2.911 2.839 3.5 7.107 5.786 11.893 6.036-0.089-0.429-0.143-0.875-0.143-1.321 0-3.179 2.571-5.768 5.768-5.768 1.661 0 3.161 0.696 4.214 1.821 1.304-0.25 2.554-0.732 3.661-1.393-0.429 1.339-1.339 2.464-2.536 3.179 1.161-0.125 2.286-0.446 3.321-0.893z"></path> </symbol><symbol id="up" viewBox="0 0 21 32"> <path d="M19.196 21.143c0 0.143-0.071 0.304-0.179 0.411l-0.893 0.893c-0.107 0.107-0.25 0.179-0.411 0.179-0.143 0-0.304-0.071-0.411-0.179l-7.018-7.018-7.018 7.018c-0.107 0.107-0.268 0.179-0.411 0.179s-0.304-0.071-0.411-0.179l-0.893-0.893c-0.107-0.107-0.179-0.268-0.179-0.411s0.071-0.304 0.179-0.411l8.321-8.321c0.107-0.107 0.268-0.179 0.411-0.179s0.304 0.071 0.411 0.179l8.321 8.321c0.107 0.107 0.179 0.268 0.179 0.411z"></path> </symbol><symbol id="upload" viewBox="0 0 32 32"> <path d="M14 18h4v-8h6l-8-8-8 8h6zM20 13.5v3.085l9.158 3.415-13.158 4.907-13.158-4.907 9.158-3.415v-3.085l-12 4.5v8l16 6 16-6v-8z"></path> </symbol><symbol id="user" viewBox="0 0 23 32"> <path d="M22.857 24.982c0 2.607-1.714 4.732-3.804 4.732h-15.25c-2.089 0-3.804-2.125-3.804-4.732 0-4.696 1.161-10.125 5.839-10.125 1.446 1.411 3.411 2.286 5.589 2.286s4.143-0.875 5.589-2.286c4.679 0 5.839 5.429 5.839 10.125zM18.286 9.143c0 3.786-3.071 6.857-6.857 6.857s-6.857-3.071-6.857-6.857 3.071-6.857 6.857-6.857 6.857 3.071 6.857 6.857z"></path> </symbol><symbol id="volume" viewBox="0 0 30 32"> <path d="M13.714 6.286v19.429c0 0.625-0.518 1.143-1.143 1.143-0.304 0-0.589-0.125-0.804-0.339l-5.946-5.946h-4.679c-0.625 0-1.143-0.518-1.143-1.143v-6.857c0-0.625 0.518-1.143 1.143-1.143h4.679l5.946-5.946c0.214-0.214 0.5-0.339 0.804-0.339 0.625 0 1.143 0.518 1.143 1.143zM20.571 16c0 1.786-1.089 3.518-2.768 4.196-0.143 0.071-0.304 0.089-0.446 0.089-0.625 0-1.143-0.5-1.143-1.143 0-1.357 2.071-0.982 2.071-3.143s-2.071-1.786-2.071-3.143c0-0.643 0.518-1.143 1.143-1.143 0.143 0 0.304 0.018 0.446 0.089 1.679 0.661 2.768 2.411 2.768 4.196zM25.143 16c0 3.625-2.179 7-5.536 8.411-0.143 0.054-0.304 0.089-0.446 0.089-0.643 0-1.161-0.518-1.161-1.143 0-0.5 0.286-0.839 0.696-1.054 0.482-0.25 0.929-0.464 1.357-0.786 1.768-1.286 2.804-3.339 2.804-5.518s-1.036-4.232-2.804-5.518c-0.429-0.321-0.875-0.536-1.357-0.786-0.411-0.214-0.696-0.554-0.696-1.054 0-0.625 0.518-1.143 1.143-1.143 0.161 0 0.321 0.036 0.464 0.089 3.357 1.411 5.536 4.786 5.536 8.411zM29.714 16c0 5.482-3.268 10.446-8.304 12.607-0.143 0.054-0.304 0.089-0.464 0.089-0.625 0-1.143-0.518-1.143-1.143 0-0.518 0.268-0.804 0.696-1.054 0.25-0.143 0.536-0.232 0.804-0.375 0.5-0.268 1-0.571 1.464-0.911 2.929-2.161 4.661-5.571 4.661-9.214s-1.732-7.054-4.661-9.214c-0.464-0.339-0.964-0.643-1.464-0.911-0.268-0.143-0.554-0.232-0.804-0.375-0.429-0.25-0.696-0.536-0.696-1.054 0-0.625 0.518-1.143 1.143-1.143 0.161 0 0.321 0.036 0.464 0.089 5.036 2.161 8.304 7.125 8.304 12.607z"></path> </symbol><symbol id="volume_off" viewBox="0 0 14 32"> <path d="M13.714 6.286v19.429c0 0.625-0.518 1.143-1.143 1.143-0.304 0-0.589-0.125-0.804-0.339l-5.946-5.946h-4.679c-0.625 0-1.143-0.518-1.143-1.143v-6.857c0-0.625 0.518-1.143 1.143-1.143h4.679l5.946-5.946c0.214-0.214 0.5-0.339 0.804-0.339 0.625 0 1.143 0.518 1.143 1.143z"></path> </symbol><symbol id="youtube" viewBox="0 0 27 32"> <title>youtube</title> <path d="M17.339 22.214v3.768c0 0.804-0.232 1.196-0.696 1.196-0.268 0-0.536-0.125-0.804-0.393v-5.375c0.268-0.268 0.536-0.393 0.804-0.393 0.464 0 0.696 0.411 0.696 1.196zM23.375 22.232v0.821h-1.607v-0.821c0-0.804 0.268-1.214 0.804-1.214s0.804 0.411 0.804 1.214zM6.125 18.339h1.911v-1.679h-5.571v1.679h1.875v10.161h1.786v-10.161zM11.268 28.5h1.589v-8.821h-1.589v6.75c-0.357 0.5-0.696 0.75-1.018 0.75-0.214 0-0.339-0.125-0.375-0.375-0.018-0.054-0.018-0.25-0.018-0.625v-6.5h-1.589v6.982c0 0.625 0.054 1.036 0.143 1.304 0.143 0.446 0.518 0.661 1.036 0.661 0.571 0 1.179-0.357 1.821-1.089v0.964zM18.929 25.857v-3.518c0-0.821-0.036-1.411-0.161-1.768-0.196-0.661-0.643-1-1.268-1-0.589 0-1.143 0.321-1.661 0.964v-3.875h-1.589v11.839h1.589v-0.857c0.536 0.661 1.089 0.982 1.661 0.982 0.625 0 1.071-0.339 1.268-0.982 0.125-0.375 0.161-0.964 0.161-1.786zM24.964 25.679v-0.232h-1.625c0 0.643-0.018 1-0.036 1.089-0.089 0.429-0.321 0.643-0.714 0.643-0.554 0-0.821-0.411-0.821-1.232v-1.554h3.196v-1.839c0-0.946-0.161-1.625-0.482-2.071-0.464-0.607-1.089-0.911-1.893-0.911-0.821 0-1.446 0.304-1.911 0.911-0.339 0.446-0.5 1.125-0.5 2.071v3.089c0 0.946 0.179 1.643 0.518 2.071 0.464 0.607 1.089 0.911 1.929 0.911s1.5-0.321 1.929-0.946c0.196-0.286 0.339-0.607 0.375-0.964 0.036-0.161 0.036-0.518 0.036-1.036zM14.107 9.375v-3.75c0-0.821-0.232-1.232-0.768-1.232-0.518 0-0.768 0.411-0.768 1.232v3.75c0 0.821 0.25 1.25 0.768 1.25 0.536 0 0.768-0.429 0.768-1.25zM26.946 22.786c0 2.054-0.018 4.25-0.464 6.25-0.339 1.411-1.482 2.446-2.857 2.589-3.286 0.375-6.607 0.375-9.911 0.375s-6.625 0-9.911-0.375c-1.375-0.143-2.536-1.179-2.857-2.589-0.464-2-0.464-4.196-0.464-6.25v0c0-2.071 0.018-4.25 0.464-6.25 0.339-1.411 1.482-2.446 2.875-2.607 3.268-0.357 6.589-0.357 9.893-0.357s6.625 0 9.911 0.357c1.375 0.161 2.536 1.196 2.857 2.607 0.464 2 0.464 4.179 0.464 6.25zM9.125 0h1.821l-2.161 7.125v4.839h-1.786v-4.839c-0.161-0.875-0.518-2.125-1.089-3.786-0.393-1.107-0.786-2.232-1.161-3.339h1.893l1.268 4.696zM15.732 5.946v3.125c0 0.946-0.161 1.661-0.5 2.107-0.446 0.607-1.071 0.911-1.893 0.911-0.804 0-1.429-0.304-1.875-0.911-0.339-0.464-0.5-1.161-0.5-2.107v-3.125c0-0.946 0.161-1.643 0.5-2.089 0.446-0.607 1.071-0.911 1.875-0.911 0.821 0 1.446 0.304 1.893 0.911 0.339 0.446 0.5 1.143 0.5 2.089zM21.714 3.054v8.911h-1.625v-0.982c-0.643 0.75-1.25 1.107-1.839 1.107-0.518 0-0.893-0.214-1.054-0.661-0.089-0.268-0.143-0.696-0.143-1.339v-7.036h1.625v6.554c0 0.375 0 0.589 0.018 0.625 0.036 0.25 0.161 0.393 0.375 0.393 0.321 0 0.661-0.25 1.018-0.768v-6.804h1.625z"></path> </symbol></svg>